name GIL01_slow3.mot
datacolumns 153
datarows 4
range 0.59166670 0.61666667
endheader

                time	           pelvis_tx	           pelvis_ty	           pelvis_tz	         pelvis_tilt	         pelvis_list	     pelvis_rotation	       hip_flexion_r	     hip_adduction_r	      hip_rotation_r	        knee_angle_r	       ankle_angle_r	    subtalar_angle_r	         mtp_angle_r	       hip_flexion_l	     hip_adduction_l	      hip_rotation_l	        knee_angle_l	       ankle_angle_l	    subtalar_angle_l	         mtp_angle_l	    lumbar_extension	      lumbar_bending	     lumbar_rotation	     ground_force_vx	     ground_force_vy	     ground_force_vz	     ground_force_px	     ground_force_py	     ground_force_pz	     ground_force_vx	     ground_force_vy	     ground_force_vz	     ground_force_px	     ground_force_py	     ground_force_pz	     ground_torque_x	     ground_torque_y	     ground_torque_z	     ground_torque_x	     ground_torque_y	     ground_torque_z	    ground_marker_px	    ground_marker_py	    ground_marker_pz	    ground_marker_px	    ground_marker_py	    ground_marker_pz	    ground_marker_px	    ground_marker_py	    ground_marker_pz	    ground_marker_px	    ground_marker_py	    ground_marker_pz	    ground_marker_px	    ground_marker_py	    ground_marker_pz	    ground_marker_px	    ground_marker_py	    ground_marker_pz	    ground_marker_px	    ground_marker_py	    ground_marker_pz	    ground_marker_px	    ground_marker_py	    ground_marker_pz	    ground_marker_px	    ground_marker_py	    ground_marker_pz	    ground_marker_px	    ground_marker_py	    ground_marker_pz	    ground_marker_px	    ground_marker_py	    ground_marker_pz	    ground_marker_px	    ground_marker_py	    ground_marker_pz	    ground_marker_px	    ground_marker_py	    ground_marker_pz	    ground_marker_px	    ground_marker_py	    ground_marker_pz	    ground_marker_px	    ground_marker_py	    ground_marker_pz	    ground_marker_px	    ground_marker_py	    ground_marker_pz	    ground_marker_px	    ground_marker_py	    ground_marker_pz	    ground_marker_px	    ground_marker_py	    ground_marker_pz	    ground_marker_px	    ground_marker_py	    ground_marker_pz	    ground_marker_px	    ground_marker_py	    ground_marker_pz	    ground_marker_px	    ground_marker_py	    ground_marker_pz	    ground_marker_px	    ground_marker_py	    ground_marker_pz	    ground_marker_px	    ground_marker_py	    ground_marker_pz	    ground_marker_px	    ground_marker_py	    ground_marker_pz	    ground_marker_px	    ground_marker_py	    ground_marker_pz	    ground_marker_px	    ground_marker_py	    ground_marker_pz	    ground_marker_px	    ground_marker_py	    ground_marker_pz	    ground_marker_px	    ground_marker_py	    ground_marker_pz	    ground_marker_px	    ground_marker_py	    ground_marker_pz	    ground_marker_px	    ground_marker_py	    ground_marker_pz	    ground_marker_px	    ground_marker_py	    ground_marker_pz	    ground_marker_px	    ground_marker_py	    ground_marker_pz	    ground_marker_px	    ground_marker_py	    ground_marker_pz	    ground_marker_px	    ground_marker_py	    ground_marker_pz	    ground_marker_px	    ground_marker_py	    ground_marker_pz	    ground_marker_px	    ground_marker_py	    ground_marker_pz	    ground_marker_px	    ground_marker_py	    ground_marker_pz	
          0.59166670	         -0.75286508	          0.81334102	          0.22450569	         -2.37710571	         -0.92942286	          2.38821769	         28.05779266	         -3.73783183	         -9.99582863	        -16.99913788	          1.15709007	          0.00000000	          0.00000000	         -9.07561684	          4.62929869	        -10.21252441	         13.42015743	          3.78412342	          0.00000000	          0.00000000	         -5.78850746	          3.10789299	         -5.79842997	          0.00000000	          0.00000000	          0.00000000	         -0.44247101	          0.00000000	          0.23781354	         14.87322943	        393.60637903	          5.81439949	         -0.85541418	          0.00000000	          0.19769968	          0.00000000	          0.00000000	          0.00000000	          0.00000000	         -0.19460736	          0.00000000	         -0.80976248	          0.74604321	          0.22203080	         -0.82074881	          0.74534428	          0.29310933	         -0.82653338	          0.74464685	          0.16292414	         -0.66838521	          0.43019557	          0.31090003	         -0.88833594	          0.43416631	          0.19302471	         -0.61689174	          0.09362686	          0.32505187	         -0.87810647	          0.06797750	          0.20180459	         -0.75286508	          0.81334102	          0.22450569	         -0.74834979	          0.81388545	          0.32612339	         -0.75738031	          0.81279659	          0.12288801	         -0.90523058	          0.85341221	          0.26527217	         -0.91179568	          0.85351306	          0.21052533	         -0.67611009	          0.42953467	          0.36535084	         -0.90102935	          0.43156084	          0.14008759	         -0.66081327	          0.42707336	          0.26946402	         -0.88302922	          0.41607836	          0.23397759	         -0.63155586	          0.09283415	          0.35955673	         -0.89683753	          0.06668983	          0.16992216	         -0.60685647	          0.09812490	          0.30257991	         -0.87250024	          0.07802619	          0.23023573	         -0.89825189	          1.21919572	          0.19748154	         -0.79091477	          1.16388178	          0.25027499	         -0.78612548	          1.16649282	          0.17467740	         -0.80305868	          1.16348350	          0.21009767	         -0.77204281	          1.08227623	          0.21166916	         -0.64210659	          0.58086795	          0.42629641	         -0.71966547	          0.52878898	          0.14072086	         -0.72937566	          0.59451163	          0.38512298	         -0.78150630	          0.59963423	          0.11939065	         -0.69033021	          0.51904774	          0.37436178	         -0.81012994	          0.51648355	          0.12961054	         -0.67644078	          0.20087905	          0.42796859	         -0.91023535	          0.19461831	          0.09013628	         -0.65025645	          0.16892919	          0.35768488	         -0.90502107	          0.15704775	          0.16502205	         -0.52776092	          0.08398062	          0.37097302	         -0.77996337	          0.04716279	          0.18376647	
          0.60000002	         -0.74844539	          0.81308305	          0.22437647	         -2.43623924	         -1.01535368	          2.44238353	         28.20521545	         -3.39098287	         -9.53441715	        -15.69919586	          0.57291716	          0.00000000	          0.00000000	         -9.28910255	          4.54646969	        -10.17964268	         13.31579113	          3.94394088	          0.00000000	          0.00000000	         -5.73713875	          3.16613770	         -5.99979639	          0.00000000	          0.00000000	          0.00000000	         -0.44125671	          0.00000000	          0.23838263	         15.88451452	        391.38493076	          6.08232986	         -0.85353284	          0.00000000	          0.19713640	          0.00000000	          0.00000000	          0.00000000	          0.00000000	         -0.21242657	          0.00000000	         -0.80566370	          0.74578160	          0.22181439	         -0.81631178	          0.74524117	          0.29315025	         -0.82226497	          0.74439132	          0.16297355	         -0.66343343	          0.43010575	          0.30897701	         -0.88554549	          0.43417418	          0.19312969	         -0.60392833	          0.09444439	          0.32376245	         -0.87771690	          0.06805931	          0.20207539	         -0.74844539	          0.81308305	          0.22437647	         -0.74379927	          0.81374627	          0.32597178	         -0.75309151	          0.81241977	          0.12278115	         -0.90075946	          0.85336339	          0.26535252	         -0.90751272	          0.85345978	          0.21061124	         -0.67054915	          0.42939255	          0.36351010	         -0.89827317	          0.43162504	          0.14019805	         -0.65710223	          0.42692462	          0.26706558	         -0.88073826	          0.41639397	          0.23403905	         -0.61830610	          0.09342048	          0.35838157	         -0.89644045	          0.06687972	          0.17018434	         -0.59446049	          0.09912232	          0.30107257	         -0.87206888	          0.07789560	          0.23057032	         -0.89385360	          1.21897423	          0.19707233	         -0.78666949	          1.16366756	          0.25010240	         -0.78170860	          1.16622496	          0.17458801	         -0.79872262	          1.16324580	          0.20993404	         -0.76773787	          1.08202922	          0.21163064	         -0.63616973	          0.58053088	          0.42389694	         -0.71652502	          0.52812904	          0.14076495	         -0.72420430	          0.59427905	          0.38369119	         -0.77772558	          0.59924221	          0.11946198	         -0.68531281	          0.51882392	          0.37239209	         -0.80706304	          0.51613188	          0.12970009	         -0.66520393	          0.20071244	          0.42683986	         -0.90895581	          0.19476016	          0.09035549	         -0.63884526	          0.16919233	          0.35676414	         -0.90412378	          0.15710077	          0.16523530	         -0.51411861	          0.08604158	          0.36830288	         -0.77977580	          0.04688395	          0.18408175	
          0.60833335	         -0.74396372	          0.81279176	          0.22424705	         -2.49965096	         -1.10645819	          2.49376798	         28.32036209	         -3.04382563	         -9.05820847	        -14.42411995	          0.03849938	          0.00000000	          0.00000000	         -9.48956966	          4.45440149	        -10.16093349	         13.19560814	          4.09782696	          0.00000000	          0.00000000	         -5.65852165	          3.20501852	         -6.09958506	          0.00000000	          0.00000000	          0.00000000	         -0.44045154	          0.00000000	          0.23880582	         16.98750394	        389.31784868	          6.45727247	         -0.85160657	          0.00000000	          0.19656146	          0.00000000	          0.00000000	          0.00000000	          0.00000000	         -0.23044382	          0.00000000	         -0.80138111	          0.74552417	          0.22174588	         -0.81181914	          0.74511671	          0.29319584	         -0.81793809	          0.74410242	          0.16302803	         -0.65863127	          0.42989224	          0.30709699	         -0.88264787	          0.43416867	          0.19321482	         -0.59143376	          0.09527417	          0.32221562	         -0.87726599	          0.06816559	          0.20233288	         -0.74396372	          0.81279176	          0.22424705	         -0.73918831	          0.81358337	          0.32583442	         -0.74873918	          0.81200016	          0.12265968	         -0.89620352	          0.85327810	          0.26546118	         -0.90306842	          0.85337484	          0.21071416	         -0.66512561	          0.42914450	          0.36170709	         -0.89541864	          0.43168032	          0.14029066	         -0.65332568	          0.42675522	          0.26478466	         -0.87718922	          0.41587049	          0.23432630	         -0.60553581	          0.09401111	          0.35694003	         -0.89595002	          0.06709570	          0.17041481	         -0.58255410	          0.10009607	          0.29935515	         -0.87180060	          0.07774192	          0.23100366	         -0.88943553	          1.21870732	          0.19670673	         -0.78226405	          1.16344190	          0.25001934	         -0.77726758	          1.16593564	          0.17457873	         -0.79429787	          1.16298449	          0.20988141	         -0.76330358	          1.08177316	          0.21166122	         -0.63029200	          0.58014834	          0.42150265	         -0.71326882	          0.52746910	          0.14076109	         -0.71891344	          0.59403437	          0.38234258	         -0.77481359	          0.59874237	          0.11942309	         -0.68022001	          0.51860332	          0.37051994	         -0.80387819	          0.51577967	          0.12976000	         -0.65437120	          0.20051226	          0.42552736	         -0.90748590	          0.19487832	          0.09055417	         -0.62806845	          0.16925237	          0.35520929	         -0.90306842	          0.15721382	          0.16543020	         -0.50097847	          0.08809798	          0.36539996	         -0.77956992	          0.04661929	          0.18440549	
          0.61666667	         -0.73941207	          0.81247842	          0.22412246	         -2.56187725	         -1.19679904	          2.54154611	         28.39861679	         -2.70006752	         -8.56944370	        -13.17856026	         -0.44091827	          0.00000000	          0.00000000	         -9.68492889	          4.35951281	        -10.15319824	         13.05452156	          4.25900936	          0.00000000	          0.00000000	         -5.50271797	          3.31627893	         -6.19848919	          0.00000000	          0.00000000	          0.00000000	         -0.44007440	          0.00000000	          0.23904974	         18.20135936	        387.53076243	          6.99752050	         -0.84962451	          0.00000000	          0.19596892	          0.00000000	          0.00000000	          0.00000000	          0.00000000	         -0.24764752	          0.00000000	         -0.79686785	          0.74530762	          0.22186938	         -0.80725902	          0.74496907	          0.29324189	         -0.81353569	          0.74379015	          0.16308297	         -0.65396583	          0.42956206	          0.30525589	         -0.87964106	          0.43414792	          0.19328138	         -0.57943112	          0.09610511	          0.32041731	         -0.87679213	          0.06827427	          0.20260851	         -0.73941207	          0.81247842	          0.22412246	         -0.73451328	          0.81339848	          0.32570782	         -0.74431092	          0.81155831	          0.12253712	         -0.89157200	          0.85316259	          0.26559904	         -0.89846396	          0.85324615	          0.21083507	         -0.65983242	          0.42879364	          0.35993671	         -0.89245975	          0.43172389	          0.14036584	         -0.64971095	          0.42650700	          0.26266137	         -0.87140918	          0.41355160	          0.23477417	         -0.59326398	          0.09459646	          0.35524008	         -0.89540070	          0.06731448	          0.17064290	         -0.57105780	          0.10107733	          0.29739997	         -0.87170756	          0.07777572	          0.23144215	         -0.88500077	          1.21838331	          0.19633403	         -0.77778089	          1.16322637	          0.24991773	         -0.77273482	          1.16576350	          0.17452510	         -0.78978556	          1.16277099	          0.20979212	         -0.75867623	          1.08160341	          0.21155447	         -0.62447047	          0.57975006	          0.41914320	         -0.70987475	          0.52681619	          0.14071567	         -0.71351612	          0.59385788	          0.38104397	         -0.77361131	          0.59811568	          0.11946094	         -0.67516160	          0.51840061	          0.36874563	         -0.80062151	          0.51543343	          0.12980236	         -0.64394110	          0.20027170	          0.42403978	         -0.90583974	          0.19497174	          0.09074097	         -0.61759830	          0.16932352	          0.35345039	         -0.90188932	          0.15740913	          0.16558172	         -0.48834154	          0.09013989	          0.36227992	         -0.77931190	          0.04634103	          0.18475409	
